<svg width="13" height="13" viewBox="0 0 13 13" fill="none" xmlns="http://www.w3.org/2000/svg">
<path d="M6.5 11.8787C3.77 11.8787 1.54375 9.65791 1.54375 6.92249V5.90416C1.54375 5.69291 1.71708 5.52499 1.92292 5.52499C2.12875 5.52499 2.30208 5.69833 2.30208 5.90416V6.92249C2.30208 9.23541 4.18167 11.115 6.49458 11.115C8.8075 11.115 10.6871 9.23541 10.6871 6.92249V5.90416C10.6871 5.69291 10.8604 5.52499 11.0663 5.52499C11.2721 5.52499 11.4454 5.69833 11.4454 5.90416V6.92249C11.4563 9.65791 9.23 11.8787 6.5 11.8787Z" fill="#1A4514"/>
<path d="M6.5 1.08334C4.68 1.08334 3.19584 2.56751 3.19584 4.38751V6.92793C3.19584 8.74793 4.68 10.2321 6.5 10.2321C8.32 10.2321 9.80417 8.74793 9.80417 6.92793V4.38751C9.80417 2.56751 8.32 1.08334 6.5 1.08334ZM7.68084 5.73626C7.64292 5.88251 7.5075 5.98001 7.36125 5.98001C7.33417 5.98001 7.30167 5.97459 7.27459 5.96918C6.72209 5.81751 6.13709 5.81751 5.58459 5.96918C5.40584 6.01793 5.22709 5.91501 5.17834 5.73626C5.12959 5.56293 5.2325 5.37876 5.41125 5.33001C6.0775 5.14584 6.78167 5.14584 7.44792 5.33001C7.62667 5.37876 7.72959 5.55751 7.68084 5.73626ZM8.14125 4.23584C8.0925 4.37126 7.96792 4.45251 7.8325 4.45251C7.79459 4.45251 7.75667 4.44709 7.71875 4.43084C6.89 4.12751 5.98 4.12751 5.15125 4.43084C4.97792 4.49584 4.78834 4.40918 4.72334 4.23584C4.66375 4.06793 4.75042 3.87834 4.92375 3.81334C5.89875 3.46126 6.97125 3.46126 7.94084 3.81334C8.11417 3.87834 8.20084 4.06793 8.14125 4.23584Z" fill="#1A4514"/>
</svg>
