<svg width="17" height="16" viewBox="0 0 17 16" fill="none" xmlns="http://www.w3.org/2000/svg">
<path d="M7.8188 13.6722C4.35713 13.5021 1.67726 10.5452 1.84737 7.08353C2.01747 3.62185 4.97432 0.941989 8.43599 1.11209C11.8977 1.2822 14.5775 4.23904 14.4074 7.70072C14.2373 11.1624 11.2805 13.8423 7.8188 13.6722ZM8.39083 2.03112C5.43156 1.88571 2.91151 4.17554 2.76639 7.12869C2.62128 10.0818 4.90469 12.6077 7.86397 12.7531C10.8232 12.8985 13.3433 10.6087 13.4884 7.65556C13.6335 4.70241 11.3501 2.17654 8.39083 2.03112Z" fill="#1A4514"/>
<path d="M14.2219 14.601C14.1055 14.5952 13.9912 14.5466 13.9038 14.4502L12.7386 13.1646C12.5697 12.9782 12.5841 12.6841 12.7706 12.5152C12.957 12.3462 13.2511 12.3607 13.42 12.5471L14.5852 13.8327C14.7541 14.0191 14.7397 14.3132 14.5532 14.4821C14.4568 14.5695 14.3383 14.6067 14.2219 14.601Z" fill="#1A4514"/>
</svg>
